<?xml version="1.0" encoding="utf-8"?>
<!-- Generator: Adobe Illustrator 17.1.0, SVG Export Plug-In . SVG Version: 6.00 Build 0)  -->
<!DOCTYPE svg PUBLIC "-//W3C//DTD SVG 1.1//EN" "http://www.w3.org/Graphics/SVG/1.1/DTD/svg11.dtd">
<svg version="1.1" id="Vrstva_1" xmlns="http://www.w3.org/2000/svg" xmlns:xlink="http://www.w3.org/1999/xlink" x="0px" y="0px"
	 viewBox="0 0 331.2 132.3" enable-background="new 0 0 331.2 132.3" xml:space="preserve">
<path fill="#72BF44" d="M200.8,55.7c-1,3.7-1.2,3.5-4,3.5l-3.4,0c-2.2,0-3-0.4-2.4-2.5l0.8-3.2c0.6-2.1,1.5-2.5,3.8-2.5l6.5,0
	L200.8,55.7 M210.9,35.8l-22.5,0l-1.5,5.7l15.2,0c2,0,2.4,0.6,2,1.9c-0.3,1.4-0.3,1.2-0.5,2l-15.8,0c-6.6,0-9.2,2.7-10.8,8.8
	l-0.6,1.9c-1.6,6.1-0.5,8.8,6.1,8.8l30.4,0c0.6-2.2,0.7-2.5,1.5-5.4l3.4-12.8C220,38.6,217.9,35.8,210.9,35.8z M249.5,35.7l-16,0
	c-6.9,0-10.8,4.1-12.6,10.6l-3.1,11.8c-1,4-1,3.8-1.8,6.7l15.7,0c0.8-3,0.7-2.7,1.8-6.7l3.8-14.3c0.5-1.8,1.2-2.4,3-2.4l7.6,0
	C248.4,39.9,249.2,37.2,249.5,35.7z M313.4,55.5c-1,3.7-1.2,3.5-4,3.5l-3.4,0c-2.2,0-3-0.4-2.4-2.5l0.8-3.2c0.6-2.1,1.5-2.5,3.8-2.5
	l6.5,0L313.4,55.5z M323.5,35.7l-22.5,0l-1.5,5.7l15.2,0c2,0,2.4,0.6,2,1.9c-0.3,1.4-0.3,1.2-0.5,2l-15.8,0c-6.6,0-9.2,2.7-10.8,8.8
	l-0.6,1.9c-1.6,6.1-0.5,8.8,6.1,8.8l30.4,0c0.6-2.2,0.7-2.5,1.5-5.4l3.4-12.8C332.5,38.5,330.5,35.7,323.5,35.7z M281.5,35.7
	l-29.7,0c-0.9,3.3-0.7,2.7-1.8,6.7l-4.2,15.7c-1,4-1,3.6-1.8,6.7l14.6,0c0.6-2.4,0.7-2.7,1.8-6.7l3.8-14.3c0.5-1.8,1.2-2.4,3-2.4
	l5.3,0c1.8,0,2.3,0.6,1.8,2.4l-3.8,14.3c-1,4-1,3.7-1.8,6.7l14.6,0c0.8-2.9,0.7-2.7,1.8-6.7l3.1-11.8
	C290.2,39.8,288.4,35.7,281.5,35.7z M177.9,35.8l-9.3,0l-16.3,10.2l5.5-20.7l-14.6,0L132.6,65l14.6,0l3.1-11.6l4.1-2.6l3,14.2
	l16.5,0L168.2,42L177.9,35.8z M83.6,25.4c-0.4,1.5-0.7,2.7-1.7,6.7l-7,26.3c-1,4-1.2,4.4-1.8,6.7l14.6,0c0.6-2.4,0.7-2.7,1.8-6.7
	l8.8-32.9L83.6,25.4z M134.8,23l-13,0l-8.6,9.2l8.4,0L134.8,23z M217.8,22.9l-13,0l-8.6,9.2l8.4,0L217.8,22.9z M111.2,44
	c0.4-1.7,1.1-2.4,2.7-2.4l6,0c1.6,0,1.9,0.7,1.5,2.4l-1.2,4.6l-10.2,0L111.2,44z M107.9,56.3l0.6-2.1l24.4,0l2.5-9.5
	c1.6-6.1,0.5-8.8-6.1-8.8l-22.2,0c-6.6,0-9.2,2.7-10.8,8.8l-3.1,11.5c-1.6,6.1-0.5,8.8,6.1,8.8l25.3,0l1.5-5.7l-15.7,0
	C108.1,59.3,107.3,58.4,107.9,56.3z"/>
<path fill="#5C6166" d="M206.7,83.1l-3.5,13c-0.4,1.7-1.1,2.4-2.8,2.4h-6.1c-1.6,0-1.9-0.7-1.5-2.4l3.5-13c0.4-1.7,1.1-2.4,2.7-2.4
	h6.1C206.9,80.7,207.2,81.4,206.7,83.1 M215.1,75h-22.8c-6.6,0-9.2,2.7-10.8,8.8l-3.1,11.5c-1.6,6.1-0.5,8.8,6.1,8.8h22.8
	c6.6,0,9.2-2.7,10.8-8.8l3.1-11.5C222.8,77.8,221.6,75,215.1,75z M226.3,77.8c-2,2.4-2.2,5.4-1.2,7.8l4.3,9.3
	c0.4,0.9,0.2,1.9-0.4,2.5c-0.5,0.6-1.4,1-2.4,1c0,0-5.4,0-6.6,0l-1.5,5.7h20.7c2.6,0,4.7-0.6,6.4-3c2.6-3.7,1-6.9,0.4-8.1l-4.1-9
	c-0.4-0.7-0.6-1.6,0.2-2.4c0.7-0.8,1.1-0.9,2.5-0.9c0,0,4.7,0,6.4,0l1.5-5.7H233C230.4,75,228.3,75.5,226.3,77.8z M164.5,83
	l-3.6,13.2c-0.4,1.6-1.2,2.2-2.6,2.2h-5.8c-1.4,0-1.9-0.6-1.5-2.2l3.6-13.2c0.4-1.6,1.2-2.2,2.6-2.2h5.8
	C164.4,80.7,164.9,81.4,164.5,83z M172,75h-30c-0.7,2.7-0.7,2.5-1.5,5.4l-9.3,34.7h14.6c0.7-2.7,0.7-2.5,1.5-5.4l1.5-5.6h15.3
	c6.7,0,10.2-3.7,11.6-9l3-11C180.2,78.8,178.7,75,172,75z M259.9,75.7h-0.8v-1.6h0.8c0.4,0,0.8,0.2,0.8,0.8
	C260.7,75.4,260.4,75.7,259.9,75.7z M261.7,76.9c0-0.4-0.2-0.8-0.8-1v0c0.5-0.2,0.9-0.6,0.9-1.2c0-1-0.7-1.3-1.6-1.3H258v5h1.1v-2
	h0.8c0.5,0,0.7,0.2,0.8,0.7l0.1,0.8c0,0.2,0,0.4,0.1,0.5h1.1v-0.1c-0.2-0.2-0.2-0.5-0.2-0.8L261.7,76.9z M259.8,79.8
	c-1.9,0-3.6-1.4-3.6-3.8c0-2.4,1.6-3.8,3.6-3.8c2,0,3.6,1.5,3.6,3.8C263.4,78.3,261.7,79.8,259.8,79.8z M259.8,71.3
	c-2.7,0-4.6,2.1-4.6,4.7c0,2.6,1.7,4.7,4.7,4.7c2.8,0,4.7-2.2,4.7-4.7C264.5,73.4,262.6,71.3,259.8,71.3z M83.8,80.7h9.2l1.5-5.7
	h-9.2l1.7-6.3H72.4L65.3,95c-1.9,7.2,1.6,9.1,6.3,9.1h15.9l1.5-5.7c-0.3,0-0.6,0-0.7,0c0,0,0,0-0.2,0c-0.2,0-0.5,0-1,0H82
	c-2.6,0-2.8-0.5-2.3-2.4L83.8,80.7z M123,75c-0.9,3.3-0.5,1.9-1.5,5.5L117.4,96c-0.6,2.3-1,2.5-2.4,2.5h-5.4c-1.8,0-2.3-0.6-1.8-2.4
	l5.6-21H98.9c-0.7,2.7-0.7,2.7-1.8,6.7l-3.2,11.8c-1.7,6.5,0,10.6,6.9,10.6h14.7l-0.9,3.2c-0.4,1.4-1.1,2.1-3.5,2.1c0,0-3.1,0-6.6,0
	l-1.5,5.7h15.6c5.3,0,9.1-3,10.6-8.5l8.5-31.6H123z"/>
<g>
	<defs>
		<polyline id="SVGID_1_" points="-11.1,64.8 75.6,39.3 103.5,134.1 16.8,159.6 		"/>
	</defs>
	<clipPath id="SVGID_2_">
		<use xlink:href="#SVGID_1_"  overflow="visible"/>
	</clipPath>
	<g clip-path="url(#SVGID_2_)">
		<defs>
			<path id="SVGID_3_" d="M11.3,73.9l9.4,36.5c0,0,7.1,30.3,36.7,19.6c23.9-8.7,15.8-35.7,15.8-35.7l-10.7-36"/>
		</defs>
		<clipPath id="SVGID_4_">
			<use xlink:href="#SVGID_3_"  overflow="visible"/>
		</clipPath>
		
			<linearGradient id="SVGID_5_" gradientUnits="userSpaceOnUse" x1="-295.9232" y1="382.9399" x2="-294.9232" y2="382.9399" gradientTransform="matrix(39.479 -11.619 -11.619 -39.479 16156.9639 11785.5313)">
			<stop  offset="0" style="stop-color:#D5D7D8"/>
			<stop  offset="4.807623e-002" style="stop-color:#E0E1E2"/>
			<stop  offset="0.1148" style="stop-color:#EAEBEB"/>
			<stop  offset="0.1868" style="stop-color:#EDEDEE"/>
			<stop  offset="0.3549" style="stop-color:#E4E4E6"/>
			<stop  offset="0.5324" style="stop-color:#E0E1E2"/>
			<stop  offset="0.9121" style="stop-color:#C7C8CA"/>
			<stop  offset="1" style="stop-color:#C7C8CA"/>
		</linearGradient>
		<polygon clip-path="url(#SVGID_4_)" fill="url(#SVGID_5_)" points="-11.1,64.8 75.6,39.3 103.5,134.1 16.8,159.6 		"/>
	</g>
</g>
<path fill-rule="evenodd" clip-rule="evenodd" fill="#72BF44" d="M50.3,15.7c0,0-7.8-22.5-32.1-13.6C-6.2,11,1,35.9,1,35.9
	l10.5,38.8c0,0,6.1,3.3,26.6-3c22.7-7.1,24.4-13.1,24.4-13.1"/>
<g>
	<defs>
		<polyline id="SVGID_6_" points="-5.9,3.3 32.2,0.4 38.1,75.7 0,78.7 		"/>
	</defs>
	<clipPath id="SVGID_7_">
		<use xlink:href="#SVGID_6_"  overflow="visible"/>
	</clipPath>
	<g clip-path="url(#SVGID_7_)">
		<defs>
			<path id="SVGID_8_" d="M2.8,21c-3,11.5,11.3,54.4,11.3,54.4s4.7,0.8,11.6-0.5c6.1-1.2,6.7-1.6,6.7-1.6S5.4,9.5,22.5,2.9
				C22.5,2.9,6.6,6.6,2.8,21"/>
		</defs>
		<clipPath id="SVGID_9_">
			<use xlink:href="#SVGID_8_"  overflow="visible"/>
		</clipPath>
		
			<linearGradient id="SVGID_10_" gradientUnits="userSpaceOnUse" x1="-299.0151" y1="381.7336" x2="-298.0151" y2="381.7336" gradientTransform="matrix(26.226 -2.0439 -2.0439 -26.226 8625.6582 9440.6865)">
			<stop  offset="0" style="stop-color:#F0F7E8"/>
			<stop  offset="1.100000e-002" style="stop-color:#F0F7E7"/>
			<stop  offset="8.020688e-002" style="stop-color:#D5E9C2"/>
			<stop  offset="0.157" style="stop-color:#BCDC9F"/>
			<stop  offset="0.2363" style="stop-color:#A5D283"/>
			<stop  offset="0.3169" style="stop-color:#93CB6A"/>
			<stop  offset="0.3993" style="stop-color:#85C557"/>
			<stop  offset="0.4842" style="stop-color:#7BC24B"/>
			<stop  offset="0.573" style="stop-color:#74C045"/>
			<stop  offset="0.6721" style="stop-color:#72BF44"/>
			<stop  offset="1" style="stop-color:#72BF44"/>
		</linearGradient>
		<polygon clip-path="url(#SVGID_9_)" fill="url(#SVGID_10_)" points="-5.9,3.3 32.2,0.4 38.1,75.7 0,78.7 		"/>
	</g>
</g>
<g>
	<defs>
		<polyline id="SVGID_11_" points="18.4,7.4 59.2,-4.6 78.3,60.5 37.5,72.5 		"/>
	</defs>
	<clipPath id="SVGID_12_">
		<use xlink:href="#SVGID_11_"  overflow="visible"/>
	</clipPath>
	<g clip-path="url(#SVGID_12_)">
		<defs>
			<path id="SVGID_13_" d="M53.5,65.5c0,0,0.3-0.1,3.1-1.8c2.8-1.7,4.7-3.5,4.7-3.5c-7.1-26.6-6.9-26.5-11.6-42
				C45.4,4.3,35.5,2.4,35.5,2.4C44.1,21.3,53.5,65.5,53.5,65.5"/>
		</defs>
		<clipPath id="SVGID_14_">
			<use xlink:href="#SVGID_13_"  overflow="visible"/>
		</clipPath>
		
			<linearGradient id="SVGID_15_" gradientUnits="userSpaceOnUse" x1="-306.6087" y1="384.6683" x2="-305.6087" y2="384.6683" gradientTransform="matrix(13.072 -3.8338 -3.8338 -13.072 5526.6348 3888.1936)">
			<stop  offset="0" style="stop-color:#72BF44"/>
			<stop  offset="0.1448" style="stop-color:#72BF44"/>
			<stop  offset="0.8155" style="stop-color:#569735"/>
			<stop  offset="1" style="stop-color:#569735"/>
		</linearGradient>
		<polygon clip-path="url(#SVGID_14_)" fill="url(#SVGID_15_)" points="18.4,7.4 59.2,-4.6 78.3,60.5 37.5,72.5 		"/>
	</g>
</g>
<g>
	<defs>
		<polyline id="SVGID_16_" points="9.9,75.2 39.1,72.9 43.4,128.5 14.3,130.8 		"/>
	</defs>
	<clipPath id="SVGID_17_">
		<use xlink:href="#SVGID_16_"  overflow="visible"/>
	</clipPath>
	<g clip-path="url(#SVGID_17_)">
		<defs>
			<path id="SVGID_18_" d="M14.1,75.3c0,0,6.9,23.8,9.3,32.7c2.4,8.9,6.4,16.4,9.4,18.5c3,2.1,6.4,2.3,6.4,2.3l-13.9-54
				C25.4,74.8,19,76,14.1,75.3"/>
		</defs>
		<clipPath id="SVGID_19_">
			<use xlink:href="#SVGID_18_"  overflow="visible"/>
		</clipPath>
		
			<linearGradient id="SVGID_20_" gradientUnits="userSpaceOnUse" x1="-301.191" y1="381.6501" x2="-300.191" y2="381.6501" gradientTransform="matrix(20.819 -1.6225 -1.6225 -20.819 6905.9683 7559.5288)">
			<stop  offset="0" style="stop-color:#FFFFFF"/>
			<stop  offset="5.865639e-002" style="stop-color:#F8F9F9"/>
			<stop  offset="0.3575" style="stop-color:#E8E9EA"/>
			<stop  offset="0.6668" style="stop-color:#DFE0E1"/>
			<stop  offset="1" style="stop-color:#DCDDDE"/>
		</linearGradient>
		<polygon clip-path="url(#SVGID_19_)" fill="url(#SVGID_20_)" points="9.9,75.2 39.1,72.9 43.4,128.5 14.3,130.8 		"/>
	</g>
</g>
<g>
	<defs>
		<polyline id="SVGID_21_" points="25,62.1 72.1,54.3 84.1,126.1 37,133.9 		"/>
	</defs>
	<clipPath id="SVGID_22_">
		<use xlink:href="#SVGID_21_"  overflow="visible"/>
	</clipPath>
	<g clip-path="url(#SVGID_22_)">
		<defs>
			<path id="SVGID_23_" d="M56.1,64.1C43.3,70.8,36,72.3,36,72.3s5.7,21.2,10.4,34.8c4.6,13.6,7.3,20.8,7.3,20.8s13.1-4.1,17-13.8
				c1.7-4.2,2.5-9.6,1.4-16.1c-1.2-6.5-10.7-37.6-10.7-37.6S60.1,62.1,56.1,64.1"/>
		</defs>
		<clipPath id="SVGID_24_">
			<use xlink:href="#SVGID_23_"  overflow="visible"/>
		</clipPath>
		
			<linearGradient id="SVGID_25_" gradientUnits="userSpaceOnUse" x1="-297.6693" y1="382.4157" x2="-296.6693" y2="382.4157" gradientTransform="matrix(30.91 -5.1483 -5.1483 -30.91 11209.7354 10384.5059)">
			<stop  offset="0" style="stop-color:#E0E1E2"/>
			<stop  offset="0.4703" style="stop-color:#DDDEDF"/>
			<stop  offset="0.915" style="stop-color:#D3D5D6"/>
			<stop  offset="0.9891" style="stop-color:#D1D3D4"/>
			<stop  offset="1" style="stop-color:#D1D3D4"/>
		</linearGradient>
		<polygon clip-path="url(#SVGID_24_)" fill="url(#SVGID_25_)" points="25,62.1 72.1,54.3 84.1,126.1 37,133.9 		"/>
	</g>
</g>
<path fill="#04000F" d="M36.6,51c0,0-2.7-4.5-0.5-9.8c2.2-5.4,8.6-5.2,11.1-0.4c2.5,4.8,1.7,8.8,1.7,8.8s-3.3-0.6-6.4-0.2
	C39.3,49.7,36.6,51,36.6,51"/>
<path d="M55.1,65.6c1.2-7,3.5-14.1,3.5-14.1s-1.2,2.6-2.6,6.1c-1.3,3.5-5.4,12.2-21,10.7C19.5,66.8,8,55.2,8,55.2
	c1.8,2.5,11.9,11.2,14.7,14c2.8,2.8,6.3,10.1,9,17.2c2.8,7.2-0.8,8.9-0.8,8.9s3.7,2.2,6.5,2.3c2.8,0.1,9-0.5,14.5-7.5
	C57.4,83,53.9,72.6,55.1,65.6 M20.5,48.3c0,0,3.6,0.6,6.2,0.9c2.6,0.4,0.9,0.4,0.9,0.4s-3,0.7-3.7,3.1c0,0,2.6-2.3,4.5-2.4
	c0,0,0.1,0,0.1,0c0.4,0,0.8,0.1,1.2,0.2c1.4,0.4,2.4,1.3,2.4,1.3l0.1-3.4l-0.9,2c0,0-0.7-0.6-2.1-1.3c-1-0.4-2.3-0.8-3.9-1
	C21.1,47.6,20.5,48.3,20.5,48.3 M29.1,56.2c0,0,1.6-2.2,4.6-1.8c3,0.4,4,1.1,4,1.1S32.8,49.7,29.1,56.2 M40.9,51.2
	c-2.4-0.3-4.9,0.8-4.9,0.8s3.6-1.1,6.7,0.7c3.1,1.9,4.3,3,4.3,3S43.3,51.5,40.9,51.2 M53.4,52.6c0,0-0.2-0.2-0.5-0.5
	C53.2,52.3,53.4,52.6,53.4,52.6 M46.2,49.4c3.8,0.7,5.8,1.9,6.6,2.6c-0.9-0.9-2.8-2.6-4.2-3c-1.8-0.5-8.9-1.5-13.3,2.9
	C35.3,51.9,40.6,48.4,46.2,49.4 M46.9,48.5c0,0,2.9-2,5.7-1.7c2.9,0.3,3.6,0.4,3.6,0.4S50.8,43.4,46.9,48.5 M22.8,36.4
	c0,0-2.5-2.2-5.9-2c-3.4,0.2-5.1,3.2-5.1,3.2S17.5,33.6,22.8,36.4 M53,32.5c0,0,0.5-5.9-4.4-9.2c-4.9-3.3-11.1,2.1-11.1,2.1
	C49.6,18.7,53,32.5,53,32.5"/>
<path fill-rule="evenodd" clip-rule="evenodd" fill="#FFFFFF" d="M20.3,64.3c0,0,3.8,15.1,8,16.3c4.2,1.2,9.2,3.2,15.8-1.5
	c6.6-4.7,6.7-13.7,6.7-13.7S40.3,74.5,20.3,64.3"/>
<path fill="#FFFFFF" d="M43.3,48.8c2.5-0.2,4.2,0.1,5.1,0.3c0.3-1.1,0.4-2.2,0.2-3.5c-0.5-4.4-3.9-7.6-7.5-7.2
	c-3.6,0.4-6.1,4.3-5.6,8.8c0.2,1.4,0.6,2.7,1.2,3.7C37.9,50.2,40.4,49,43.3,48.8"/>
<path fill="#83D2E3" d="M47.9,42.9c0,0-1.6-4.2-5.6-4.6c-4.1-0.3-5.9,3.8-5.9,3.8C42.4,36.3,47.9,42.9,47.9,42.9 M50.9,65.3
	c0,0-3.5,3.1-11.4,3.8c0,0,3.5-0.1,6,2.2c2.5,2.3,2,4.3,2,4.3s1.9-2.7,2.7-6.2C51.1,65.8,50.9,65.3,50.9,65.3"/>
<path d="M42.4,47.3c0.2-0.3,0.8-0.4,1.4-0.4c-0.3-1.6-1.4-2.7-2.7-2.6c-1.3,0.2-2.2,1.7-2,3.4c0.1,0.8,0.4,1.4,0.8,1.9
	c0.9-0.3,2.3-0.7,3.7-0.8c0,0,0,0,0,0c0.1-0.3,0.2-0.6,0.2-1C43,47.7,42.1,47.8,42.4,47.3 M41.5,45.9c-0.1-0.4,0-0.9,0.4-1
	c0.3-0.1,0.7,0.2,0.9,0.6c0.1,0.4,0,0.9-0.4,1C42.1,46.6,41.7,46.4,41.5,45.9"/>
<path fill-rule="evenodd" clip-rule="evenodd" fill="#EF4040" d="M49.4,78.4c-4.4,3.7-5.9,8.7-5.9,8.7s-0.3-1.4,0.5-3.8
	c0.9-2.4,1.8-3.1,1.8-3.1s-4.3,2.8-4.9,3.2c0,0-8.5,6.3-4.8,9c3.7,2.6,11,0.1,15.3-5.8C55.7,80.7,53.8,74.6,49.4,78.4"/>
<path fill-rule="evenodd" clip-rule="evenodd" fill="#FFFFFF" d="M36.4,90.9c0,0,0,1.9,3,1.9c3.1,0,5.1-1.6,5.1-1.6
	S37.9,92.9,36.4,90.9"/>

</svg>
